<svg xmlns="http://www.w3.org/2000/svg" width="24.637" height="17.247" viewBox="0 0 24.637 17.247">
  <path id="Icon_awesome-eye" data-name="Icon awesome-eye" d="M24.489,12.468A13.674,13.674,0,0,0,12.319,4.5,13.676,13.676,0,0,0,.149,12.468a1.518,1.518,0,0,0,0,1.311,13.674,13.674,0,0,0,12.17,7.968,13.676,13.676,0,0,0,12.17-7.968A1.518,1.518,0,0,0,24.489,12.468Zm-12.17,7.123a6.319,6.319,0,0,1-6.159-6.468,6.319,6.319,0,0,1,6.159-6.468,6.319,6.319,0,0,1,6.159,6.468A6.316,6.316,0,0,1,12.319,19.591Zm0-10.779a3.9,3.9,0,0,0-1.083.17,2.23,2.23,0,0,1-.2,2.793,1.975,1.975,0,0,1-2.66.211,4.41,4.41,0,0,0,1.671,4.7,3.94,3.94,0,0,0,4.775-.158,4.431,4.431,0,0,0,1.386-4.8,4.117,4.117,0,0,0-3.888-2.915Z" transform="translate(0 -4.5)" fill="#00a1bb"/>
</svg>
