<svg xmlns="http://www.w3.org/2000/svg" width="153.402" height="91.555" viewBox="0 0 153.402 91.555">
  <g id="logo" transform="translate(0)">
    <path id="Pfad_10" data-name="Pfad 10" d="M20.289,56.921a23.657,23.657,0,0,1-4.759-.5,26.125,26.125,0,0,1-4.759-1.5,17.158,17.158,0,0,1-6.262-4.446,16.538,16.538,0,0,1-3.444-6.137A24.246,24.246,0,0,1,0,37.133a33.96,33.96,0,0,1,.939-7.89,38.467,38.467,0,0,1,2.755-7.514,35.851,35.851,0,0,1,3.945-6.45,33.112,33.112,0,0,1-.751-3.757A36.95,36.95,0,0,1,6.638,7.2,25.989,25.989,0,0,1,7.389.877Q7.64,0,8.266,0,8.7,0,8.7.626a1.9,1.9,0,0,1-.063.564q-.125.939-.25,1.941-.063,1-.063,2.066a34.837,34.837,0,0,0,.25,4.2q.25,2.066.564,3.82A29.7,29.7,0,0,1,19.6,4.383,27.754,27.754,0,0,1,32.061,1.44a27.327,27.327,0,0,1,3.256.188,20.019,20.019,0,0,1,8.2,2.5,12.218,12.218,0,0,1,4.7,4.634,11.612,11.612,0,0,1,1.565,5.824,13.773,13.773,0,0,1-1.378,5.949A17.433,17.433,0,0,1,44.4,25.925a20.906,20.906,0,0,1-6.45,3.882,23.657,23.657,0,0,1-8.516,1.44q-1.065,0-2.129-.063t-2.317-.25a24.486,24.486,0,0,1-9.017-3.194,17.457,17.457,0,0,1-6.575-7.514,13.874,13.874,0,0,0-1.378,2.567,40.9,40.9,0,0,0-1.753,4.571,50.318,50.318,0,0,0-1.5,5.886,32.171,32.171,0,0,0-.626,6.325,21.333,21.333,0,0,0,.814,5.949,11.837,11.837,0,0,0,8.266,8.2,23.747,23.747,0,0,0,3.507.751,27.01,27.01,0,0,0,3.695.25,28.185,28.185,0,0,0,7.2-.939,25.9,25.9,0,0,0,6.638-2.755,19.441,19.441,0,0,0,6.262-5.511,52.446,52.446,0,0,0,4.07-7.139q.25-.626.689-.626.313,0,.313.438a1.585,1.585,0,0,1-.25.751q-1.315,2.755-2.63,5.072a25.146,25.146,0,0,1-3.068,4.2,26.041,26.041,0,0,1-4.446,3.82A29.673,29.673,0,0,1,28.3,55.544a23.444,23.444,0,0,1-8.015,1.378Zm8.767-27.3a21.556,21.556,0,0,0,7.64-1.252,17.907,17.907,0,0,0,5.573-3.381,14.057,14.057,0,0,0,3.444-4.7,12.253,12.253,0,0,0,1.19-5.2A10.394,10.394,0,0,0,42.08,6.262,13.542,13.542,0,0,0,35.944,4.07a20.37,20.37,0,0,0-2.755-.188A20.679,20.679,0,0,0,24.8,5.7a28.333,28.333,0,0,0-7.7,5.01,36.43,36.43,0,0,0-6.45,7.514,16.546,16.546,0,0,0,6.137,8.015,21.538,21.538,0,0,0,9.142,3.194A27.334,27.334,0,0,0,29.056,29.619Z" transform="translate(0 0)" fill="#fff"/>
    <path id="Pfad_11" data-name="Pfad 11" d="M166.52,132.066a5.859,5.859,0,0,1-1.691-.313,4.024,4.024,0,0,1-1.691-1.127,4.092,4.092,0,0,1-.689-2.567,6.79,6.79,0,0,1,.751-3.131q.814-1.565,1.5-3.006a1.009,1.009,0,0,1-.438-.125.421.421,0,0,1-.188-.376,1.111,1.111,0,0,1,.125-.5q.25-.5.564-1.065a10.4,10.4,0,0,0,.564-1.19q.939-1.941,1.879-3.695.939-1.816,1.628-3.194a2.441,2.441,0,0,1,2.38-1.378H175.1a13.338,13.338,0,0,0-1.941,1.816,17.776,17.776,0,0,0-2.066,3.507l-.438.877-1.127,2.254q-.626,1.315-1.315,2.693-.626,1.378-1.065,2.317a15.709,15.709,0,0,0-1.065,2.818,7.766,7.766,0,0,0-.251,1.879q0,2.066,1.378,2.066,1.5,0,3.632-2.442a35.139,35.139,0,0,0,3.444-4.947q1.691-2.881,3.194-5.949,1.566-3.068,2.755-5.511a2.493,2.493,0,0,1,2.442-1.378h3.444a13.6,13.6,0,0,0-1.566,1.44,7.938,7.938,0,0,0-1.252,1.753q-.564,1.064-1.565,3.068-.814,1.691-1.753,3.632-.877,1.879-1.565,3.569a14.332,14.332,0,0,0-.877,2.755q-.063.626-.125.939a3.518,3.518,0,0,0-.063.689,2.889,2.889,0,0,0,.376,1.691,1.3,1.3,0,0,0,1,.5,4.166,4.166,0,0,0,3.006-1.691,21.878,21.878,0,0,0,2.943-4.133,50.571,50.571,0,0,0,2.442-4.634q.376-.689.689-.689.376,0,.376.438a1.585,1.585,0,0,1-.25.751q-.689,1.5-1.691,3.444a39.76,39.76,0,0,1-2.254,3.82,14.509,14.509,0,0,1-2.755,3.131,5.141,5.141,0,0,1-3.256,1.19,3.28,3.28,0,0,1-2.567-1.127,5,5,0,0,1-1-3.319,11.866,11.866,0,0,1,.626-3.632,38.258,38.258,0,0,1-2.442,3.757,16.365,16.365,0,0,1-2.943,3.131A5.164,5.164,0,0,1,166.52,132.066Z" transform="translate(-120.064 -81.595)" fill="#fff"/>
    <path id="Pfad_12" data-name="Pfad 12" d="M195.289,189.661a23.653,23.653,0,0,1-4.759-.5,26.125,26.125,0,0,1-4.759-1.5,17.158,17.158,0,0,1-6.262-4.446,16.539,16.539,0,0,1-3.444-6.137,24.246,24.246,0,0,1-1.065-7.2,33.961,33.961,0,0,1,.939-7.89,38.464,38.464,0,0,1,2.755-7.514,35.851,35.851,0,0,1,3.945-6.45,33.124,33.124,0,0,1-.751-3.757,36.949,36.949,0,0,1-.25-4.321,25.99,25.99,0,0,1,.751-6.325q.251-.877.877-.877.438,0,.438.626a1.9,1.9,0,0,1-.063.564q-.125.939-.25,1.941-.063,1-.063,2.066a34.836,34.836,0,0,0,.25,4.2q.25,2.066.564,3.82a29.7,29.7,0,0,1,10.457-8.829,27.754,27.754,0,0,1,12.461-2.943,27.326,27.326,0,0,1,3.256.188,20.02,20.02,0,0,1,8.2,2.5,12.218,12.218,0,0,1,4.7,4.634,11.612,11.612,0,0,1,1.566,5.824,13.773,13.773,0,0,1-1.378,5.949,17.433,17.433,0,0,1-4.008,5.385,20.907,20.907,0,0,1-6.45,3.882,23.656,23.656,0,0,1-8.516,1.44q-1.065,0-2.129-.063t-2.317-.25a24.487,24.487,0,0,1-9.017-3.194,17.456,17.456,0,0,1-6.575-7.514,13.875,13.875,0,0,0-1.378,2.567,40.893,40.893,0,0,0-1.753,4.571,50.317,50.317,0,0,0-1.5,5.886,32.172,32.172,0,0,0-.626,6.325,21.333,21.333,0,0,0,.814,5.949,11.837,11.837,0,0,0,8.266,8.2,23.751,23.751,0,0,0,3.507.751,27.008,27.008,0,0,0,3.695.251,28.185,28.185,0,0,0,7.2-.939,25.905,25.905,0,0,0,6.638-2.755,19.441,19.441,0,0,0,6.262-5.511,52.442,52.442,0,0,0,4.07-7.139q.25-.626.689-.626.313,0,.313.438a1.585,1.585,0,0,1-.25.751q-1.315,2.755-2.63,5.072a25.15,25.15,0,0,1-3.068,4.2,26.039,26.039,0,0,1-4.446,3.82,29.672,29.672,0,0,1-6.888,3.507,23.443,23.443,0,0,1-8.015,1.378Zm8.767-27.3a21.556,21.556,0,0,0,7.64-1.252,17.906,17.906,0,0,0,5.573-3.381,14.056,14.056,0,0,0,3.444-4.7,12.252,12.252,0,0,0,1.19-5.2A10.394,10.394,0,0,0,217.08,139a13.542,13.542,0,0,0-6.137-2.192,20.369,20.369,0,0,0-2.755-.188,20.679,20.679,0,0,0-8.391,1.816,28.332,28.332,0,0,0-7.7,5.01,36.431,36.431,0,0,0-6.45,7.514,16.547,16.547,0,0,0,6.137,8.015,21.539,21.539,0,0,0,9.143,3.194A27.334,27.334,0,0,0,204.056,162.359Z" transform="translate(-129.34 -98.106)" fill="#fff"/>
    <path id="Pfad_13" data-name="Pfad 13" d="M353.22,255.77a3.269,3.269,0,0,1-1.566-.313,3.719,3.719,0,0,1-1.565-1.378,5.32,5.32,0,0,1-.626-2.818,14.577,14.577,0,0,1,.564-3.632q-.751,1.19-1.941,2.943a20.232,20.232,0,0,1-2.568,3.006,8.894,8.894,0,0,1-2.254,1.628,4.615,4.615,0,0,1-1.941.5,3.068,3.068,0,0,1-2.63-1.44,6.872,6.872,0,0,1-1-3.882,15.86,15.86,0,0,1,1.252-5.7,25.226,25.226,0,0,1,4.07-6.638,13.8,13.8,0,0,1,4.383-3.507,11.027,11.027,0,0,1,5.135-1.378,7.673,7.673,0,0,1,2.755.5,5.567,5.567,0,0,1,2.317,1.5,1.379,1.379,0,0,1,.438,1,.771.771,0,0,1-.313.626.893.893,0,0,1-.814.125,2.837,2.837,0,0,0-2.943-2.192,5.591,5.591,0,0,0-2.442.689,16.9,16.9,0,0,0-4.446,3.695,38.934,38.934,0,0,0-3.945,5.323q-.25.376-.814,1.44-.5,1.065-1,2.38a12.369,12.369,0,0,0-.689,2.567,3.76,3.76,0,0,0-.063.564v.438q0,2.066,1.565,2.066,1.878,0,4.258-2.755a36.107,36.107,0,0,0,2.943-4.2q1.315-2.192,2.693-4.7a28.6,28.6,0,0,1,1.753-2.818A2.687,2.687,0,0,1,356.1,238.3a5.214,5.214,0,0,1,1.378.188,3.332,3.332,0,0,0,1.44.063,12.118,12.118,0,0,0-1.378,1.879q-.814,1.378-1.753,3.131t-1.691,3.569a21.41,21.41,0,0,0-1.065,3.131q-.063.376-.188,1.065-.063.689-.063,1,0,1.753,1,1.753a3.109,3.109,0,0,0,2.129-1.19,17.63,17.63,0,0,0,2.317-2.943q1.127-1.753,2.066-3.507.939-1.816,1.5-2.943.251-.626.751-.626.313,0,.313.438a2.438,2.438,0,0,1-.188.689q-.751,1.565-1.816,3.569-1.064,1.941-2.317,3.82a17.7,17.7,0,0,1-2.63,3.068A4.665,4.665,0,0,1,353.22,255.77Zm9.928.063q-3.068,0-4.383-1.565a5.481,5.481,0,0,1-1.252-3.381,5.154,5.154,0,0,1,.689-2.63A2.3,2.3,0,0,1,359.954,247q1.252-2.442,2.693-5.323,1.5-2.881,2.755-5.573a19.567,19.567,0,0,1,2.192-3.507,4.9,4.9,0,0,1,3.006-1.941h.626a5.394,5.394,0,0,1,.877.063,3.463,3.463,0,0,1,.877.25,1,1,0,0,1,.689.939q0,.376-.438.376a1.071,1.071,0,0,1-.5-.188,3.5,3.5,0,0,0-1.315-.313,1.313,1.313,0,0,0-.689.188,3.62,3.62,0,0,0-1.691,1.753,6.508,6.508,0,0,0-.438,2.38,11.89,11.89,0,0,0,.188,2.066,15.649,15.649,0,0,0,.564,1.816q.689,1.753,1.44,3.444a8.263,8.263,0,0,1,.814,3.632,7.847,7.847,0,0,1-1.252,4.008,10.131,10.131,0,0,1-3.194,3.319l.438.063a2.635,2.635,0,0,0,.438.063h.188a4.85,4.85,0,0,0,2.693-.814,10.2,10.2,0,0,0,2.317-2.129,25.934,25.934,0,0,0,2.254-3.507q1.315-2.254,2.5-4.759a.528.528,0,0,1,.438-.313.449.449,0,0,1,.438.25.429.429,0,0,1,.063.5q-.814,1.753-1.879,3.82a30.728,30.728,0,0,1-2.317,3.882,12.324,12.324,0,0,1-3.068,3.006,6.73,6.73,0,0,1-3.82,1.127,9.661,9.661,0,0,1-1.065-.063,5.47,5.47,0,0,1-1.127-.25,6.817,6.817,0,0,1-1.315.376,4.142,4.142,0,0,1-1.19.188Zm1.879-1.879a7.45,7.45,0,0,0,1.879-2.567,9.679,9.679,0,0,0,.877-4.446,29.113,29.113,0,0,0-.5-5.2,27.669,27.669,0,0,1-.5-4.884v-.751q.063-.376.125-.689-.814,1.691-1.879,3.945-1.065,2.192-2.129,4.258t-1.816,3.507l.313.063a.867.867,0,0,1,.689.438,2.446,2.446,0,0,1,.25,1.565,5.573,5.573,0,0,0,.689,2.943A4.371,4.371,0,0,0,365.026,253.955Zm-2.38.877a3.519,3.519,0,0,0,.689-.063,4.454,4.454,0,0,1,.564-.188,7.1,7.1,0,0,1-1.691-1.816,6.9,6.9,0,0,1-.814-3.006,3.68,3.68,0,0,0-1.127,2.567,2.656,2.656,0,0,0,.626,1.753A2.156,2.156,0,0,0,362.647,254.831Zm28.669.939a3.269,3.269,0,0,1-1.566-.313,3.719,3.719,0,0,1-1.565-1.378,5.32,5.32,0,0,1-.626-2.818,14.577,14.577,0,0,1,.564-3.632q-.751,1.19-1.941,2.943a20.232,20.232,0,0,1-2.568,3.006,8.891,8.891,0,0,1-2.254,1.628,4.615,4.615,0,0,1-1.941.5,3.069,3.069,0,0,1-2.63-1.44,6.872,6.872,0,0,1-1-3.883,15.86,15.86,0,0,1,1.252-5.7,25.225,25.225,0,0,1,4.07-6.638,13.8,13.8,0,0,1,4.383-3.507,11.027,11.027,0,0,1,5.135-1.378,7.674,7.674,0,0,1,2.755.5,5.568,5.568,0,0,1,2.317,1.5,1.379,1.379,0,0,1,.438,1,.771.771,0,0,1-.313.626.893.893,0,0,1-.814.125,2.837,2.837,0,0,0-2.943-2.192,5.592,5.592,0,0,0-2.442.689,16.9,16.9,0,0,0-4.446,3.695,38.935,38.935,0,0,0-3.945,5.323q-.251.376-.814,1.44-.5,1.065-1,2.38a12.376,12.376,0,0,0-.689,2.567,3.766,3.766,0,0,0-.063.564v.438q0,2.066,1.565,2.066,1.879,0,4.258-2.755a36.107,36.107,0,0,0,2.943-4.2q1.315-2.192,2.693-4.7a28.614,28.614,0,0,1,1.753-2.818A2.687,2.687,0,0,1,394.2,238.3a5.213,5.213,0,0,1,1.378.188,3.333,3.333,0,0,0,1.44.063,12.122,12.122,0,0,0-1.378,1.879q-.814,1.378-1.753,3.131t-1.691,3.569a21.4,21.4,0,0,0-1.065,3.131q-.063.376-.188,1.065-.063.689-.063,1,0,1.753,1,1.753a3.109,3.109,0,0,0,2.129-1.19,17.636,17.636,0,0,0,2.317-2.943q1.127-1.753,2.066-3.507.939-1.816,1.5-2.943.25-.626.751-.626.313,0,.313.438a2.433,2.433,0,0,1-.188.689q-.751,1.565-1.816,3.569-1.065,1.941-2.317,3.82a17.711,17.711,0,0,1-2.63,3.068A4.665,4.665,0,0,1,391.316,255.77Z" transform="translate(-249.582 -170.477)" fill="#fff"/>
    <path id="Pfad_14" data-name="Pfad 14" d="M527.2,178.356c3.319,5.445,1.957,6.312.133,7.436s-7.2.584-10.523-4.861c-1.062-1.743-4.115-7.353-5.443-8.592-2.82-2.63-3.53-1.067-2.288-1.832,1.824-1.125,14.583.6,18.121,7.848Z" transform="translate(-375.815 -125.787)" fill="#fff"/>
  </g>
</svg>
